<?xml version="1.0" encoding="UTF-8" standalone="no"?>
<svg
   xmlns:dc="http://purl.org/dc/elements/1.1/"
   xmlns:cc="http://creativecommons.org/ns#"
   xmlns:rdf="http://www.w3.org/1999/02/22-rdf-syntax-ns#"
   xmlns:svg="http://www.w3.org/2000/svg"
   xmlns="http://www.w3.org/2000/svg"
   xmlns:xlink="http://www.w3.org/1999/xlink"
   xmlns:sodipodi="http://sodipodi.sourceforge.net/DTD/sodipodi-0.dtd"
   xmlns:inkscape="http://www.inkscape.org/namespaces/inkscape"
   inkscape:version="1.0 (1.0+r73+1)"
   sodipodi:docname="background.svg"
   version="1.1"
   viewBox="0 0 874.11 733.63"
   height="733.63"
   width="874.11"
   data-name="Layer 1"
   id="390bda19-a7d2-4807-bf84-0b71cfc4032d"
   inkscape:export-filename="/home/jaline/Downloads/undraw_connected_8wvi_2.png"
   inkscape:export-xdpi="299.98505"
   inkscape:export-ydpi="299.98505">
  <metadata
     id="metadata181">
    <rdf:RDF>
      <cc:Work
         rdf:about="">
        <dc:format>image/svg+xml</dc:format>
        <dc:type
           rdf:resource="http://purl.org/dc/dcmitype/StillImage" />
        <dc:title>connected</dc:title>
      </cc:Work>
    </rdf:RDF>
  </metadata>
  <sodipodi:namedview
     inkscape:current-layer="390bda19-a7d2-4807-bf84-0b71cfc4032d"
     inkscape:window-maximized="1"
     inkscape:window-y="27"
     inkscape:window-x="1280"
     inkscape:cy="371.84948"
     inkscape:cx="344.17699"
     inkscape:zoom="0.86360655"
     showgrid="false"
     id="namedview179"
     inkscape:window-height="1025"
     inkscape:window-width="1920"
     inkscape:pageshadow="2"
     inkscape:pageopacity="0"
     guidetolerance="10"
     gridtolerance="10"
     objecttolerance="10"
     borderopacity="1"
     bordercolor="#666666"
     pagecolor="#ffffff"
     inkscape:document-rotation="0" />
  <defs
     id="defs22">
    <linearGradient
       id="linearGradient5246"
       inkscape:collect="always">
      <stop
         id="stop5242"
         offset="0"
         style="stop-color:#f5f5f5;stop-opacity:1;" />
      <stop
         id="stop5244"
         offset="1"
         style="stop-color:#f5f5f5;stop-opacity:0;" />
    </linearGradient>
    <linearGradient
       id="linearGradient5159"
       inkscape:collect="always">
      <stop
         id="stop5155"
         offset="0"
         style="stop-color:#f359b3;stop-opacity:1;" />
      <stop
         id="stop5157"
         offset="1"
         style="stop-color:#f359b3;stop-opacity:0;" />
    </linearGradient>
    <linearGradient
       gradientUnits="userSpaceOnUse"
       gradientTransform="matrix(0, 1, -1.02, 0, 1081.62, -103.54)"
       y2="474.73"
       x2="303.77"
       y1="475.49"
       x1="875.04"
       id="cc82a564-ea96-4f3a-b817-d04de3d3185f">
      <stop
         id="stop2"
         stop-opacity="0.25"
         stop-color="gray"
         offset="0" />
      <stop
         id="stop4"
         stop-opacity="0.12"
         stop-color="gray"
         offset="0.54" />
      <stop
         id="stop6"
         stop-opacity="0.1"
         stop-color="gray"
         offset="1" />
    </linearGradient>
    <linearGradient
       gradientUnits="userSpaceOnUse"
       gradientTransform="matrix(0,1,-1.02,0,918.92516,-185.45838)"
       y2="111.52"
       x2="590.41"
       y1="841.63"
       x1="590.41"
       id="e2d916eb-0c16-4978-ba1c-6a4f2feb782d">
      <stop
         id="stop9"
         stop-opacity="0.09"
         offset="0" />
      <stop
         id="stop11"
         stop-opacity="0.07"
         offset="0.55" />
      <stop
         id="stop13"
         stop-opacity="0.02"
         offset="1" />
    </linearGradient>
    <linearGradient
       xlink:href="#cc82a564-ea96-4f3a-b817-d04de3d3185f"
       gradientTransform="matrix(1.5393957,0,0,1.5393957,-323.6428,-242.73106)"
       y2="83.19"
       x2="837.64"
       y1="295.46"
       x1="837.64"
       id="7dc82f8a-aae8-4c14-8443-a0bee5c82ac4" />
    <linearGradient
       xlink:href="#cc82a564-ea96-4f3a-b817-d04de3d3185f"
       gradientTransform="matrix(1.5393957,0,0,1.5393957,-323.6428,-242.73106)"
       y2="230.5"
       x2="305.44"
       y1="442.78"
       x1="305.44"
       id="10911ca7-360a-4a17-aa6c-ba55de6df86c" />
    <linearGradient
       xlink:href="#cc82a564-ea96-4f3a-b817-d04de3d3185f"
       gradientTransform="matrix(-1.5393957,0,0,1.5393957,-249.75181,-242.73106)"
       y2="547.95"
       x2="-537.55"
       y1="760.23"
       x1="-537.55"
       id="b1d6e2ae-fbc3-4669-9109-ab786db17612" />
    <linearGradient
       xlink:href="#cc82a564-ea96-4f3a-b817-d04de3d3185f"
       gradientTransform="matrix(1.5393957,0,0,1.5393957,-235.75367,-197.85873)"
       y2="343.15"
       x2="137.34"
       y1="416.18"
       x1="137.34"
       id="014d2d59-4ea0-44d4-9011-1415ae1e0169" />
    <linearGradient
       xlink:href="#cc82a564-ea96-4f3a-b817-d04de3d3185f"
       gradientTransform="matrix(1.5393957,0,0,1.5393957,-235.75367,-197.85873)"
       y2="186.5"
       x2="677.83"
       y1="259.53"
       x1="677.83"
       id="3edc3864-c137-45a8-b4cb-910029123495" />
    <linearGradient
       xlink:href="#cc82a564-ea96-4f3a-b817-d04de3d3185f"
       gradientTransform="matrix(1.5393957,0,0,1.5393957,-235.75367,-197.85873)"
       y2="660.6"
       x2="425.74"
       y1="733.63"
       x1="425.74"
       id="526052fb-0a4d-4689-9c8f-871db821c2c2" />
    <clipPath
       clipPathUnits="userSpaceOnUse"
       id="clipPath382">
      <path
         d="m 2257.53,880.18 c -0.15,0 -0.28,0.011 -0.37,0.019 -2.31,0 -4.68,0 -7.13,0 -4.92,0 -10.14,0 -15.67,0 -44.13,0 -107.18,0 -182.84,0 -145.4,0 -337.41,0 -531.22,0 11.04,14.383 11.93,34.852 0.84,50.371 -8.26,11.559 -21.27,17.711 -34.47,17.711 -8.51,0 -17.11,-2.562 -24.56,-7.89 -19.02,-13.59 -23.42,-40.032 -9.82,-59.039 0.27,-0.391 0.56,-0.782 0.85,-1.153 -84.81,0 -169,0 -248.76,0 -4.91,2.34 -10.39,3.653 -16.14,3.653 -0.81,0 -1.62,-0.032 -2.44,-0.082 -4.92,-0.321 -9.55,-1.571 -13.75,-3.571 -76.58,0 -148.48,0 -212.21,0 -7.309,6.301 -16.664,10.34 -27.035,10.949 -0.91,0.063 -1.817,0.082 -2.715,0.082 -11.262,0 -21.672,-4.128 -29.688,-11.031 -57.347,0 -105.613,0 -141.425,0 -5.508,0 -10.743,0 -15.649,0 -2.461,0 -4.844,0 -7.148,0 -0.094,-0.008 -0.219,-0.019 -0.367,-0.019 -0.985,0 -3.04,0.211 -4.895,0.371 -2.117,0.179 -4.188,0.371 -6.238,0.551 -16.313,1.449 -30.2,2.679 -41.457,3.679 -22.508,2.008 -34.512,3.059 -34.512,3.059 l -0.344,0.101 c 0,0 -1.324,0.59 -3.633,1.618 -2.285,1.16 -5.632,2.273 -9.507,4.57 -7.981,3.961 -17.739,11.351 -26.778,19.652 -8.293,9.028 -15.687,18.789 -19.64,26.77 -2.293,3.871 -3.407,7.219 -4.563,9.508 -1.031,2.312 -1.637,3.621 -1.637,3.621 l -0.082,0.351 c 0,0 -2.183,24.61 -6.011,67.679 -0.481,5.38 -0.981,11.05 -1.504,17 -0.196,1.81 -0.121,2.2 -0.141,3.08 v 2.42 c 0,1.64 0,3.3 0,5 0,6.82 0,14.2 0,22.07 0,15.75 0,33.51 0,52.91 0,77.54 0,180.94 0,284.34 0,103.39 0,206.78 0,284.33 0,19.39 0,37.15 0,52.91 0,7.87 0,15.25 0,22.06 0,1.71 0,3.37 0,5.01 v 2.42 c 0.02,0.88 -0.055,1.27 0.141,3.07 0.523,5.96 1.023,11.62 1.504,17.01 3.828,43.07 6.011,67.68 6.011,67.68 l 0.082,0.34 c 0,0 0.606,1.32 1.637,3.62 1.156,2.29 2.27,5.65 4.563,9.51 3.953,7.99 11.347,17.74 19.64,26.78 9.039,8.3 18.797,15.69 26.778,19.65 3.875,2.29 7.222,3.4 9.507,4.56 2.309,1.04 3.633,1.63 3.633,1.63 l 0.344,0.09 c 0,0 12.004,1.07 34.512,3.06 11.257,1 25.144,2.24 41.457,3.69 2.05,0.18 4.121,0.37 6.238,0.55 1.848,0.16 3.895,0.36 4.883,0.36 0.152,0 0.285,0 0.379,-0.01 2.304,0 4.687,0 7.148,0 4.906,0 10.141,0 15.649,0 33.804,0 78.703,0 131.867,0 -0.528,-1.78 -0.903,-3.64 -1.106,-5.55 -1.84,-17.05 10.516,-32.38 27.586,-34.24 1.129,-0.12 2.246,-0.18 3.356,-0.18 15.672,0 29.16,11.84 30.875,27.78 0.457,4.23 0.039,8.35 -1.102,12.19 120.347,0 271.207,0 428.167,0 6.16,-7.37 15.36,-11.81 25.18,-11.81 2.52,0 5.07,0.29 7.63,0.9 7.17,1.7 13.24,5.64 17.63,10.91 22.49,0 45.05,0 67.61,0 201.77,0 403.53,0 554.85,0 75.66,0 138.71,0 182.84,0 5.53,0 10.75,0 15.67,0 2.45,0 4.82,0 7.13,0 0.1,0.01 0.23,0.01 0.38,0.01 1,0 3.05,-0.2 4.89,-0.36 2.12,-0.18 4.2,-0.37 6.23,-0.55 16.33,-1.45 30.21,-2.69 41.47,-3.69 22.51,-1.99 34.51,-3.06 34.51,-3.06 l 0.35,-0.09 c 0,0 1.31,-0.59 3.62,-1.63 2.29,-1.16 5.64,-2.27 9.51,-4.56 7.98,-3.96 17.74,-11.35 26.77,-19.65 8.3,-9.04 15.7,-18.79 19.65,-26.78 2.31,-3.86 3.41,-7.22 4.57,-9.51 1.04,-2.3 1.62,-3.62 1.62,-3.62 l 0.1,-0.34 c 0,0 0.72,-8.21 2.18,-24.61 0.73,-8.2 1.64,-18.47 2.73,-30.77 0.55,-6.16 1.14,-12.83 1.78,-19.99 0.3,-3.54 0.62,-7.21 0.96,-10.99 0,-2.02 0,-4.11 0,-6.26 0,-34.47 0,-86.17 0,-155.12 0,-68.93 0,-155.1 0,-258.51 0,-51.7 0,-107.72 0,-168.04 0,-30.16 0,-61.4 0,-93.71 0,-5.36 0,-10.75 0,-16.17 -0.89,2.55 -2.24,4.98 -4.09,7.17 -4.46,5.29 -10.84,8.02 -17.27,8.02 -5.14,0 -10.32,-1.75 -14.56,-5.33 -9.53,-8.05 -10.74,-22.3 -2.7,-31.83 4.47,-5.3 10.86,-8.03 17.28,-8.03 5.15,0 10.32,1.75 14.56,5.33 3.22,2.72 5.49,6.15 6.78,9.86 0,-6.06 0,-12.17 0,-18.31 0,-1.03 0,-2.08 0,-3.12 v -1.57 c 0.02,-0.41 -0.01,-1.07 -0.13,-2.23 -0.35,-3.99 -0.7,-7.99 -1.05,-12 -0.73,-8.01 -1.43,-16.06 -2.15,-24.12 -1.44,-16.159 -2.88,-32.452 -4.34,-48.85 v 0 c -5.51,-14.219 -13.64,-26.328 -21.82,-35.379 -7.96,-9.402 -16.6,-15.129 -23.04,-19.902 -6.92,-4.028 -12.13,-6.86 -15.69,-8.25 -3.51,-1.579 -5.27,-2.368 -5.27,-2.368 l -0.35,-0.101 c 0,0 -12,-1.051 -34.51,-3.059 -11.26,-1 -25.14,-2.23 -41.47,-3.679 -2.03,-0.18 -4.11,-0.372 -6.23,-0.551 -1.85,-0.16 -3.91,-0.371 -4.9,-0.371 m -497.31,83.422 c -7.66,0 -14.99,-4.391 -18.36,-11.821 -4.59,-10.133 -0.1,-22.07 10.01,-26.66 2.71,-1.23 5.53,-1.801 8.31,-1.801 7.67,0 14.99,4.391 18.36,11.821 4.59,10.121 0.11,22.07 -10.02,26.66 -2.7,1.219 -5.52,1.801 -8.3,1.801 m 319.96,25.269 c -10.93,0 -21.01,-7.141 -24.22,-18.16 -3.93,-13.383 3.75,-27.402 17.13,-31.32 2.36,-0.692 4.75,-1.02 7.1,-1.02 10.92,0 20.99,7.149 24.22,18.16 3.91,13.379 -3.76,27.41 -17.13,31.321 -2.37,0.687 -4.76,1.019 -7.1,1.019 M 646.496,982.41 c -1.551,0 -3.125,-0.18 -4.699,-0.539 -11.043,-2.59 -17.91,-13.652 -15.324,-24.691 2.222,-9.469 10.664,-15.871 19.984,-15.871 1.551,0 3.121,0.179 4.695,0.55 11.055,2.571 17.911,13.629 15.332,24.672 -2.211,9.481 -10.656,15.879 -19.988,15.879 m 377.604,47.49 c -10.11,0 -18.78,-7.64 -19.84,-17.92 -1.13,-10.95 6.83,-20.781 17.79,-21.91 0.7,-0.07 1.39,-0.109 2.08,-0.109 10.11,0 18.78,7.641 19.85,17.919 1.14,10.96 -6.83,20.78 -17.81,21.91 -0.7,0.08 -1.39,0.11 -2.07,0.11 m -255.834,10.3 c 3.996,-8.79 10.851,-16.36 20.074,-21.16 6.594,-3.42 13.648,-5.04 20.598,-5.04 16.167,0 31.785,8.78 39.753,24.11 0.36,0.69 0.7,1.38 1.02,2.09 H 2258.48 v 0 c 0,157.18 0,289.23 0,396.1 0.61,-0.06 1.22,-0.09 1.84,-0.09 6.21,0 12.28,3.15 15.74,8.85 5.29,8.69 2.53,20.02 -6.16,25.3 -2.99,1.82 -6.29,2.69 -9.55,2.69 -0.63,0 -1.25,-0.04 -1.87,-0.1 0,202.59 0,303.9 0,303.9 h -303.97 c 1.78,3.3 2.49,7.21 1.76,11.19 -1.53,8.23 -8.71,13.98 -16.8,13.98 -1.02,0 -2.07,-0.09 -3.11,-0.28 -9.28,-1.71 -15.42,-10.63 -13.7,-19.91 0.33,-1.79 0.92,-3.46 1.74,-4.98 h -650.91 c 0.9,0.88 1.77,1.82 2.6,2.81 14.1,16.78 11.93,41.8 -4.84,55.88 -7.43,6.25 -16.48,9.3 -25.49,9.3 -11.31,0 -22.54,-4.82 -30.39,-14.15 -13.43,-15.98 -12.08,-39.47 2.61,-53.84 H 734.871 V 1626 c -1.773,0.53 -3.574,0.79 -5.344,0.79 -7.808,0 -15.101,-4.92 -17.75,-12.73 -3.339,-9.8 1.914,-20.46 11.719,-23.79 2,-0.68 4.035,-1 6.039,-1 1.824,0 3.621,0.27 5.336,0.78 V 1040.2 h 33.395 m 1532.364,235.65 c -8.47,0 -17.01,-2.65 -24.3,-8.13 -17.89,-13.43 -21.52,-38.84 -8.07,-56.73 7.96,-10.6 20.13,-16.19 32.44,-16.19 8.47,0 17.01,2.64 24.3,8.12 17.89,13.44 21.5,38.85 8.07,56.74 -7.96,10.6 -20.13,16.19 -32.44,16.19 m -1622.595,94.96 c -8.055,0 -16.183,-2.46 -23.183,-7.58 -17.547,-12.82 -21.375,-37.44 -8.563,-55 7.699,-10.54 19.672,-16.13 31.809,-16.13 8.054,0 16.187,2.46 23.191,7.58 17.539,12.81 21.367,37.44 8.555,54.99 -7.703,10.55 -19.672,16.14 -31.809,16.14 m 1670.345,308.43 c -6.28,0 -12.47,-2.94 -16.39,-8.45 -6.42,-9.02 -4.31,-21.58 4.72,-28.01 3.53,-2.51 7.6,-3.72 11.63,-3.72 6.28,0 12.47,2.94 16.39,8.43 6.42,9.04 4.31,21.58 -4.72,28.03 -3.53,2.51 -7.6,3.72 -11.63,3.72 M 687.484,1857.13 c -15.015,0 -28.796,-9.97 -32.972,-25.15 -5.008,-18.21 5.703,-37.05 23.914,-42.06 3.035,-0.83 6.086,-1.23 9.09,-1.23 15.015,0 28.797,9.97 32.972,25.15 5.008,18.21 -5.703,37.05 -23.918,42.06 -3.031,0.83 -6.082,1.23 -9.086,1.23 m 1481.856,23.48 c -3.03,0 -6.11,-0.58 -9.09,-1.8 -12.27,-5.02 -18.15,-19.04 -13.12,-31.31 3.8,-9.3 12.77,-14.93 22.23,-14.93 3.03,0 6.1,0.58 9.08,1.8 12.26,5.02 18.14,19.05 13.12,31.31 -3.8,9.3 -12.76,14.93 -22.22,14.93 m -610.23,34.68 c -13.41,0 -26.37,-7.25 -33.04,-19.94 -9.59,-18.22 -2.58,-40.77 15.64,-50.35 5.54,-2.91 11.48,-4.3 17.33,-4.3 13.4,0 26.36,7.25 33.03,19.94 9.58,18.22 2.58,40.77 -15.64,50.36 -5.54,2.91 -11.47,4.29 -17.32,4.29 m 791.72,-1.04 c -12.54,0 -24.5,-7.21 -29.96,-19.39 -7.41,-16.52 -0.03,-35.94 16.5,-43.36 4.36,-1.95 8.92,-2.88 13.41,-2.88 12.53,0 24.5,7.22 29.95,19.39 7.41,16.52 0.03,35.94 -16.49,43.36 -4.36,1.95 -8.92,2.88 -13.41,2.88 m -589.93,1.11 c -1.7,0 -3.44,-0.16 -5.18,-0.48 -15.18,-2.85 -25.19,-17.48 -22.35,-32.66 2.51,-13.45 14.27,-22.84 27.47,-22.84 1.71,0 3.45,0.16 5.19,0.48 15.19,2.85 25.2,17.46 22.36,32.66 -2.52,13.45 -14.28,22.84 -27.49,22.84"
         id="path380"
         inkscape:connector-curvature="0" />
    </clipPath>
    <clipPath
       clipPathUnits="userSpaceOnUse"
       id="clipPath394">
      <path
         d="m 2260.32,1436.21 c -0.62,0 -1.23,0.03 -1.84,0.09 0,12.58 0,24.77 0,36.65 0.62,0.06 1.24,0.1 1.87,0.1 3.26,0 6.56,-0.87 9.55,-2.69 8.69,-5.28 11.45,-16.61 6.16,-25.3 -3.46,-5.7 -9.53,-8.85 -15.74,-8.85"
         id="path392"
         inkscape:connector-curvature="0" />
    </clipPath>
    <clipPath
       clipPathUnits="userSpaceOnUse"
       id="clipPath406">
      <path
         d="m 2169.36,1832.57 c -9.46,0 -18.43,5.63 -22.23,14.93 -5.03,12.27 0.85,26.29 13.12,31.31 2.98,1.22 6.06,1.8 9.09,1.8 9.46,0 18.42,-5.63 22.22,-14.93 5.02,-12.26 -0.86,-26.29 -13.12,-31.31 -2.98,-1.22 -6.05,-1.8 -9.08,-1.8"
         id="path404"
         inkscape:connector-curvature="0" />
    </clipPath>
    <clipPath
       clipPathUnits="userSpaceOnUse"
       id="clipPath418">
      <path
         d="m 1760.84,1859.38 c -13.2,0 -24.96,9.39 -27.47,22.84 -2.84,15.18 7.17,29.81 22.35,32.66 1.74,0.32 3.48,0.48 5.18,0.48 13.21,0 24.97,-9.39 27.49,-22.84 2.84,-15.2 -7.17,-29.81 -22.36,-32.66 -1.74,-0.32 -3.48,-0.48 -5.19,-0.48"
         id="path416"
         inkscape:connector-curvature="0" />
    </clipPath>
    <clipPath
       clipPathUnits="userSpaceOnUse"
       id="clipPath430">
      <path
         d="m 2300.7,1194.8 c -12.31,0 -24.48,5.59 -32.44,16.19 -13.45,17.89 -9.82,43.3 8.07,56.73 7.29,5.48 15.83,8.13 24.3,8.13 12.31,0 24.48,-5.59 32.44,-16.19 13.43,-17.89 9.82,-43.3 -8.07,-56.74 -7.29,-5.48 -15.83,-8.12 -24.3,-8.12"
         id="path428"
         inkscape:connector-curvature="0" />
    </clipPath>
    <clipPath
       clipPathUnits="userSpaceOnUse"
       id="clipPath442">
      <path
         d="m 1403.8,1925.04 c -9.82,0 -19.02,4.44 -25.18,11.81 16.76,0 33.57,0 50.44,0 -4.39,-5.27 -10.46,-9.21 -17.63,-10.91 -2.56,-0.61 -5.11,-0.9 -7.63,-0.9"
         id="path440"
         inkscape:connector-curvature="0" />
    </clipPath>
    <clipPath
       clipPathUnits="userSpaceOnUse"
       id="clipPath454">
      <path
         d="m 1559.04,1840.7 c -5.85,0 -11.79,1.39 -17.33,4.3 -18.22,9.58 -25.23,32.13 -15.64,50.35 6.67,12.69 19.63,19.94 33.04,19.94 5.85,0 11.78,-1.38 17.32,-4.29 18.22,-9.59 25.22,-32.14 15.64,-50.36 -6.67,-12.69 -19.63,-19.94 -33.03,-19.94"
         id="path452"
         inkscape:connector-curvature="0" />
    </clipPath>
    <clipPath
       clipPathUnits="userSpaceOnUse"
       id="clipPath466">
      <path
         d="m 729.535,1589.27 c -2.004,0 -4.039,0.32 -6.039,1 -9.805,3.33 -15.058,13.99 -11.719,23.79 2.649,7.81 9.942,12.73 17.75,12.73 1.77,0 3.571,-0.26 5.344,-0.79 v -35.95 c -1.715,-0.51 -3.512,-0.78 -5.336,-0.78"
         id="path464"
         inkscape:connector-curvature="0" />
    </clipPath>
    <clipPath
       clipPathUnits="userSpaceOnUse"
       id="clipPath478">
      <path
         d="m 2348.34,1639.06 c -4.03,0 -8.1,1.21 -11.63,3.72 -9.03,6.43 -11.14,18.99 -4.72,28.01 3.92,5.51 10.11,8.45 16.39,8.45 4.03,0 8.1,-1.21 11.63,-3.72 9.03,-6.45 11.14,-18.99 4.72,-28.03 -3.92,-5.49 -10.11,-8.43 -16.39,-8.43"
         id="path476"
         inkscape:connector-curvature="0" />
    </clipPath>
    <clipPath
       clipPathUnits="userSpaceOnUse"
       id="clipPath490">
      <path
         d="m 808.938,1014 c -6.95,0 -14.004,1.62 -20.598,5.04 -9.223,4.8 -16.078,12.37 -20.074,21.16 h 81.445 c -0.32,-0.71 -0.66,-1.4 -1.02,-2.09 -7.968,-15.33 -23.586,-24.11 -39.753,-24.11"
         id="path488"
         inkscape:connector-curvature="0" />
    </clipPath>
    <clipPath
       clipPathUnits="userSpaceOnUse"
       id="clipPath502">
      <path
         d="m 1273.49,1776.85 h -55.51 c -14.69,14.37 -16.04,37.86 -2.61,53.84 7.85,9.33 19.08,14.15 30.39,14.15 9.01,0 18.06,-3.05 25.49,-9.3 16.77,-14.08 18.94,-39.1 4.84,-55.88 -0.83,-0.99 -1.7,-1.93 -2.6,-2.81"
         id="path500"
         inkscape:connector-curvature="0" />
    </clipPath>
    <clipPath
       clipPathUnits="userSpaceOnUse"
       id="clipPath514">
      <path
         d="m 959.84,880.199 c -6.082,0 -12.082,0 -18.016,0 -14.269,0 -28.09,0 -41.422,0 8.016,6.903 18.426,11.031 29.688,11.031 0.898,0 1.805,-0.019 2.715,-0.082 10.371,-0.609 19.726,-4.648 27.035,-10.949"
         id="path512"
         inkscape:connector-curvature="0" />
    </clipPath>
    <clipPath
       clipPathUnits="userSpaceOnUse"
       id="clipPath526">
      <path
         d="m 1760.18,923.32 c -2.78,0 -5.6,0.571 -8.31,1.801 -10.11,4.59 -14.6,16.527 -10.01,26.66 3.37,7.43 10.7,11.821 18.36,11.821 2.78,0 5.6,-0.582 8.3,-1.801 10.13,-4.59 14.61,-16.539 10.02,-26.66 -3.37,-7.43 -10.69,-11.821 -18.36,-11.821"
         id="path524"
         inkscape:connector-curvature="0" />
    </clipPath>
    <clipPath
       clipPathUnits="userSpaceOnUse"
       id="clipPath538">
      <path
         d="m 2080.19,938.371 c -2.35,0 -4.74,0.328 -7.1,1.02 -13.38,3.918 -21.06,17.937 -17.13,31.32 3.21,11.019 13.29,18.16 24.22,18.16 2.34,0 4.73,-0.332 7.1,-1.019 13.37,-3.911 21.04,-17.942 17.13,-31.321 -3.23,-11.011 -13.3,-18.16 -24.22,-18.16"
         id="path536"
         inkscape:connector-curvature="0" />
    </clipPath>
    <clipPath
       clipPathUnits="userSpaceOnUse"
       id="clipPath550">
      <path
         d="m 1024.13,989.961 c -0.69,0 -1.38,0.039 -2.08,0.109 -10.96,1.129 -18.92,10.96 -17.79,21.91 1.06,10.28 9.73,17.92 19.84,17.92 0.68,0 1.37,-0.03 2.07,-0.11 10.98,-1.13 18.95,-10.95 17.81,-21.91 -1.07,-10.278 -9.74,-17.919 -19.85,-17.919"
         id="path548"
         inkscape:connector-curvature="0" />
    </clipPath>
    <clipPath
       clipPathUnits="userSpaceOnUse"
       id="clipPath562">
      <path
         d="m 687.516,1788.69 c -3.004,0 -6.055,0.4 -9.09,1.23 -18.211,5.01 -28.922,23.85 -23.914,42.06 4.176,15.18 17.957,25.15 32.972,25.15 3.004,0 6.055,-0.4 9.086,-1.23 18.215,-5.01 28.926,-23.85 23.918,-42.06 -4.175,-15.18 -17.957,-25.15 -32.972,-25.15"
         id="path560"
         inkscape:connector-curvature="0" />
    </clipPath>
    <clipPath
       clipPathUnits="userSpaceOnUse"
       id="clipPath574">
      <path
         d="m 1954.51,1776.85 h -30.11 c -0.82,1.52 -1.41,3.19 -1.74,4.98 -1.72,9.28 4.42,18.2 13.7,19.91 1.04,0.19 2.09,0.28 3.11,0.28 8.09,0 15.27,-5.75 16.8,-13.98 0.73,-3.98 0.02,-7.89 -1.76,-11.19"
         id="path572"
         inkscape:connector-curvature="0" />
    </clipPath>
    <clipPath
       clipPathUnits="userSpaceOnUse"
       id="clipPath586">
      <path
         d="m 2397.14,1048.85 c -6.42,0 -12.81,2.73 -17.28,8.03 -8.04,9.53 -6.83,23.78 2.7,31.83 4.24,3.58 9.42,5.33 14.56,5.33 6.43,0 12.81,-2.73 17.27,-8.02 1.85,-2.19 3.2,-4.62 4.09,-7.17 0,-4.91 0,-9.85 0,-14.81 -1.29,-3.71 -3.56,-7.14 -6.78,-9.86 -4.24,-3.58 -9.41,-5.33 -14.56,-5.33"
         id="path584"
         inkscape:connector-curvature="0" />
    </clipPath>
    <clipPath
       clipPathUnits="userSpaceOnUse"
       id="clipPath598">
      <path
         d="m 646.457,941.309 c -9.32,0 -17.762,6.402 -19.984,15.871 -2.586,11.039 4.281,22.101 15.324,24.691 1.574,0.359 3.148,0.539 4.699,0.539 9.332,0 17.777,-6.398 19.988,-15.879 2.579,-11.043 -4.277,-22.101 -15.332,-24.672 -1.574,-0.371 -3.144,-0.55 -4.695,-0.55"
         id="path596"
         inkscape:connector-curvature="0" />
    </clipPath>
    <clipPath
       clipPathUnits="userSpaceOnUse"
       id="clipPath610">
      <path
         d="m 1204.38,880.199 c -10.86,0 -21.64,0 -32.33,0 4.2,2 8.83,3.25 13.75,3.571 0.82,0.05 1.63,0.082 2.44,0.082 5.75,0 11.23,-1.313 16.14,-3.653"
         id="path608"
         inkscape:connector-curvature="0" />
    </clipPath>
    <clipPath
       clipPathUnits="userSpaceOnUse"
       id="clipPath622">
      <path
         d="m 920.68,1896.88 c -1.11,0 -2.227,0.06 -3.356,0.18 -17.07,1.86 -29.426,17.19 -27.586,34.24 0.203,1.91 0.578,3.77 1.106,5.55 16.25,0 33.269,0 50.98,0 2.856,0 5.739,0 8.629,0 1.141,-3.84 1.559,-7.96 1.102,-12.19 -1.715,-15.94 -15.203,-27.78 -30.875,-27.78"
         id="path620"
         inkscape:connector-curvature="0" />
    </clipPath>
    <clipPath
       clipPathUnits="userSpaceOnUse"
       id="clipPath634">
      <path
         d="m 2350.78,1848.62 c -4.49,0 -9.05,0.93 -13.41,2.88 -16.53,7.42 -23.91,26.84 -16.5,43.36 5.46,12.18 17.42,19.39 29.96,19.39 4.49,0 9.05,-0.93 13.41,-2.88 16.52,-7.42 23.9,-26.84 16.49,-43.36 -5.45,-12.17 -17.42,-19.39 -29.95,-19.39"
         id="path632"
         inkscape:connector-curvature="0" />
    </clipPath>
    <clipPath
       clipPathUnits="userSpaceOnUse"
       id="clipPath646">
      <path
         d="m 678.098,1292.1 c -12.137,0 -24.11,5.59 -31.809,16.13 -12.812,17.56 -8.984,42.18 8.563,55 7,5.12 15.128,7.58 23.183,7.58 12.137,0 24.106,-5.59 31.809,-16.14 12.812,-17.55 8.984,-42.18 -8.555,-54.99 -7.004,-5.12 -15.137,-7.58 -23.191,-7.58"
         id="path644"
         inkscape:connector-curvature="0" />
    </clipPath>
    <clipPath
       clipPathUnits="userSpaceOnUse"
       id="clipPath658">
      <path
         d="m 1520.3,880.199 c -7.88,0 -15.75,0 -23.63,0 -14.52,0 -29.03,0 -43.53,0 -0.29,0.371 -0.58,0.762 -0.85,1.153 -13.6,19.007 -9.2,45.449 9.82,59.039 7.45,5.328 16.05,7.89 24.56,7.89 13.2,0 26.21,-6.152 34.47,-17.711 11.09,-15.519 10.2,-35.988 -0.84,-50.371"
         id="path656"
         inkscape:connector-curvature="0" />
    </clipPath>
    <clipPath
       clipPathUnits="userSpaceOnUse"
       id="clipPath658-3">
      <path
         d="m 1520.3,880.199 c -7.88,0 -15.75,0 -23.63,0 -14.52,0 -29.03,0 -43.53,0 -0.29,0.371 -0.58,0.762 -0.85,1.153 -13.6,19.007 -9.2,45.449 9.82,59.039 7.45,5.328 16.05,7.89 24.56,7.89 13.2,0 26.21,-6.152 34.47,-17.711 11.09,-15.519 10.2,-35.988 -0.84,-50.371"
         id="path656-6"
         inkscape:connector-curvature="0" />
    </clipPath>
    <clipPath
       clipPathUnits="userSpaceOnUse"
       id="clipPath646-7">
      <path
         d="m 678.098,1292.1 c -12.137,0 -24.11,5.59 -31.809,16.13 -12.812,17.56 -8.984,42.18 8.563,55 7,5.12 15.128,7.58 23.183,7.58 12.137,0 24.106,-5.59 31.809,-16.14 12.812,-17.55 8.984,-42.18 -8.555,-54.99 -7.004,-5.12 -15.137,-7.58 -23.191,-7.58"
         id="path644-5"
         inkscape:connector-curvature="0" />
    </clipPath>
    <clipPath
       clipPathUnits="userSpaceOnUse"
       id="clipPath634-3">
      <path
         d="m 2350.78,1848.62 c -4.49,0 -9.05,0.93 -13.41,2.88 -16.53,7.42 -23.91,26.84 -16.5,43.36 5.46,12.18 17.42,19.39 29.96,19.39 4.49,0 9.05,-0.93 13.41,-2.88 16.52,-7.42 23.9,-26.84 16.49,-43.36 -5.45,-12.17 -17.42,-19.39 -29.95,-19.39"
         id="path632-5"
         inkscape:connector-curvature="0" />
    </clipPath>
    <clipPath
       clipPathUnits="userSpaceOnUse"
       id="clipPath622-6">
      <path
         d="m 920.68,1896.88 c -1.11,0 -2.227,0.06 -3.356,0.18 -17.07,1.86 -29.426,17.19 -27.586,34.24 0.203,1.91 0.578,3.77 1.106,5.55 16.25,0 33.269,0 50.98,0 2.856,0 5.739,0 8.629,0 1.141,-3.84 1.559,-7.96 1.102,-12.19 -1.715,-15.94 -15.203,-27.78 -30.875,-27.78"
         id="path620-2"
         inkscape:connector-curvature="0" />
    </clipPath>
    <clipPath
       clipPathUnits="userSpaceOnUse"
       id="clipPath610-9">
      <path
         d="m 1204.38,880.199 c -10.86,0 -21.64,0 -32.33,0 4.2,2 8.83,3.25 13.75,3.571 0.82,0.05 1.63,0.082 2.44,0.082 5.75,0 11.23,-1.313 16.14,-3.653"
         id="path608-1"
         inkscape:connector-curvature="0" />
    </clipPath>
    <clipPath
       clipPathUnits="userSpaceOnUse"
       id="clipPath598-2">
      <path
         d="m 646.457,941.309 c -9.32,0 -17.762,6.402 -19.984,15.871 -2.586,11.039 4.281,22.101 15.324,24.691 1.574,0.359 3.148,0.539 4.699,0.539 9.332,0 17.777,-6.398 19.988,-15.879 2.579,-11.043 -4.277,-22.101 -15.332,-24.672 -1.574,-0.371 -3.144,-0.55 -4.695,-0.55"
         id="path596-7"
         inkscape:connector-curvature="0" />
    </clipPath>
    <clipPath
       clipPathUnits="userSpaceOnUse"
       id="clipPath586-0">
      <path
         d="m 2397.14,1048.85 c -6.42,0 -12.81,2.73 -17.28,8.03 -8.04,9.53 -6.83,23.78 2.7,31.83 4.24,3.58 9.42,5.33 14.56,5.33 6.43,0 12.81,-2.73 17.27,-8.02 1.85,-2.19 3.2,-4.62 4.09,-7.17 0,-4.91 0,-9.85 0,-14.81 -1.29,-3.71 -3.56,-7.14 -6.78,-9.86 -4.24,-3.58 -9.41,-5.33 -14.56,-5.33"
         id="path584-9"
         inkscape:connector-curvature="0" />
    </clipPath>
    <clipPath
       clipPathUnits="userSpaceOnUse"
       id="clipPath574-3">
      <path
         d="m 1954.51,1776.85 h -30.11 c -0.82,1.52 -1.41,3.19 -1.74,4.98 -1.72,9.28 4.42,18.2 13.7,19.91 1.04,0.19 2.09,0.28 3.11,0.28 8.09,0 15.27,-5.75 16.8,-13.98 0.73,-3.98 0.02,-7.89 -1.76,-11.19"
         id="path572-6"
         inkscape:connector-curvature="0" />
    </clipPath>
    <clipPath
       clipPathUnits="userSpaceOnUse"
       id="clipPath562-0">
      <path
         d="m 687.516,1788.69 c -3.004,0 -6.055,0.4 -9.09,1.23 -18.211,5.01 -28.922,23.85 -23.914,42.06 4.176,15.18 17.957,25.15 32.972,25.15 3.004,0 6.055,-0.4 9.086,-1.23 18.215,-5.01 28.926,-23.85 23.918,-42.06 -4.175,-15.18 -17.957,-25.15 -32.972,-25.15"
         id="path560-6"
         inkscape:connector-curvature="0" />
    </clipPath>
    <clipPath
       clipPathUnits="userSpaceOnUse"
       id="clipPath550-2">
      <path
         d="m 1024.13,989.961 c -0.69,0 -1.38,0.039 -2.08,0.109 -10.96,1.129 -18.92,10.96 -17.79,21.91 1.06,10.28 9.73,17.92 19.84,17.92 0.68,0 1.37,-0.03 2.07,-0.11 10.98,-1.13 18.95,-10.95 17.81,-21.91 -1.07,-10.278 -9.74,-17.919 -19.85,-17.919"
         id="path548-6"
         inkscape:connector-curvature="0" />
    </clipPath>
    <clipPath
       clipPathUnits="userSpaceOnUse"
       id="clipPath538-1">
      <path
         d="m 2080.19,938.371 c -2.35,0 -4.74,0.328 -7.1,1.02 -13.38,3.918 -21.06,17.937 -17.13,31.32 3.21,11.019 13.29,18.16 24.22,18.16 2.34,0 4.73,-0.332 7.1,-1.019 13.37,-3.911 21.04,-17.942 17.13,-31.321 -3.23,-11.011 -13.3,-18.16 -24.22,-18.16"
         id="path536-8"
         inkscape:connector-curvature="0" />
    </clipPath>
    <clipPath
       clipPathUnits="userSpaceOnUse"
       id="clipPath526-7">
      <path
         d="m 1760.18,923.32 c -2.78,0 -5.6,0.571 -8.31,1.801 -10.11,4.59 -14.6,16.527 -10.01,26.66 3.37,7.43 10.7,11.821 18.36,11.821 2.78,0 5.6,-0.582 8.3,-1.801 10.13,-4.59 14.61,-16.539 10.02,-26.66 -3.37,-7.43 -10.69,-11.821 -18.36,-11.821"
         id="path524-9"
         inkscape:connector-curvature="0" />
    </clipPath>
    <clipPath
       clipPathUnits="userSpaceOnUse"
       id="clipPath514-2">
      <path
         d="m 959.84,880.199 c -6.082,0 -12.082,0 -18.016,0 -14.269,0 -28.09,0 -41.422,0 8.016,6.903 18.426,11.031 29.688,11.031 0.898,0 1.805,-0.019 2.715,-0.082 10.371,-0.609 19.726,-4.648 27.035,-10.949"
         id="path512-0"
         inkscape:connector-curvature="0" />
    </clipPath>
    <clipPath
       clipPathUnits="userSpaceOnUse"
       id="clipPath502-2">
      <path
         d="m 1273.49,1776.85 h -55.51 c -14.69,14.37 -16.04,37.86 -2.61,53.84 7.85,9.33 19.08,14.15 30.39,14.15 9.01,0 18.06,-3.05 25.49,-9.3 16.77,-14.08 18.94,-39.1 4.84,-55.88 -0.83,-0.99 -1.7,-1.93 -2.6,-2.81"
         id="path500-3"
         inkscape:connector-curvature="0" />
    </clipPath>
    <clipPath
       clipPathUnits="userSpaceOnUse"
       id="clipPath490-7">
      <path
         d="m 808.938,1014 c -6.95,0 -14.004,1.62 -20.598,5.04 -9.223,4.8 -16.078,12.37 -20.074,21.16 h 81.445 c -0.32,-0.71 -0.66,-1.4 -1.02,-2.09 -7.968,-15.33 -23.586,-24.11 -39.753,-24.11"
         id="path488-5"
         inkscape:connector-curvature="0" />
    </clipPath>
    <clipPath
       clipPathUnits="userSpaceOnUse"
       id="clipPath478-9">
      <path
         d="m 2348.34,1639.06 c -4.03,0 -8.1,1.21 -11.63,3.72 -9.03,6.43 -11.14,18.99 -4.72,28.01 3.92,5.51 10.11,8.45 16.39,8.45 4.03,0 8.1,-1.21 11.63,-3.72 9.03,-6.45 11.14,-18.99 4.72,-28.03 -3.92,-5.49 -10.11,-8.43 -16.39,-8.43"
         id="path476-2"
         inkscape:connector-curvature="0" />
    </clipPath>
    <clipPath
       clipPathUnits="userSpaceOnUse"
       id="clipPath466-2">
      <path
         d="m 729.535,1589.27 c -2.004,0 -4.039,0.32 -6.039,1 -9.805,3.33 -15.058,13.99 -11.719,23.79 2.649,7.81 9.942,12.73 17.75,12.73 1.77,0 3.571,-0.26 5.344,-0.79 v -35.95 c -1.715,-0.51 -3.512,-0.78 -5.336,-0.78"
         id="path464-8"
         inkscape:connector-curvature="0" />
    </clipPath>
    <clipPath
       clipPathUnits="userSpaceOnUse"
       id="clipPath454-9">
      <path
         d="m 1559.04,1840.7 c -5.85,0 -11.79,1.39 -17.33,4.3 -18.22,9.58 -25.23,32.13 -15.64,50.35 6.67,12.69 19.63,19.94 33.04,19.94 5.85,0 11.78,-1.38 17.32,-4.29 18.22,-9.59 25.22,-32.14 15.64,-50.36 -6.67,-12.69 -19.63,-19.94 -33.03,-19.94"
         id="path452-7"
         inkscape:connector-curvature="0" />
    </clipPath>
    <clipPath
       clipPathUnits="userSpaceOnUse"
       id="clipPath442-3">
      <path
         d="m 1403.8,1925.04 c -9.82,0 -19.02,4.44 -25.18,11.81 16.76,0 33.57,0 50.44,0 -4.39,-5.27 -10.46,-9.21 -17.63,-10.91 -2.56,-0.61 -5.11,-0.9 -7.63,-0.9"
         id="path440-6"
         inkscape:connector-curvature="0" />
    </clipPath>
    <clipPath
       clipPathUnits="userSpaceOnUse"
       id="clipPath430-1">
      <path
         d="m 2300.7,1194.8 c -12.31,0 -24.48,5.59 -32.44,16.19 -13.45,17.89 -9.82,43.3 8.07,56.73 7.29,5.48 15.83,8.13 24.3,8.13 12.31,0 24.48,-5.59 32.44,-16.19 13.43,-17.89 9.82,-43.3 -8.07,-56.74 -7.29,-5.48 -15.83,-8.12 -24.3,-8.12"
         id="path428-2"
         inkscape:connector-curvature="0" />
    </clipPath>
    <clipPath
       clipPathUnits="userSpaceOnUse"
       id="clipPath418-9">
      <path
         d="m 1760.84,1859.38 c -13.2,0 -24.96,9.39 -27.47,22.84 -2.84,15.18 7.17,29.81 22.35,32.66 1.74,0.32 3.48,0.48 5.18,0.48 13.21,0 24.97,-9.39 27.49,-22.84 2.84,-15.2 -7.17,-29.81 -22.36,-32.66 -1.74,-0.32 -3.48,-0.48 -5.19,-0.48"
         id="path416-3"
         inkscape:connector-curvature="0" />
    </clipPath>
    <clipPath
       clipPathUnits="userSpaceOnUse"
       id="clipPath406-1">
      <path
         d="m 2169.36,1832.57 c -9.46,0 -18.43,5.63 -22.23,14.93 -5.03,12.27 0.85,26.29 13.12,31.31 2.98,1.22 6.06,1.8 9.09,1.8 9.46,0 18.42,-5.63 22.22,-14.93 5.02,-12.26 -0.86,-26.29 -13.12,-31.31 -2.98,-1.22 -6.05,-1.8 -9.08,-1.8"
         id="path404-9"
         inkscape:connector-curvature="0" />
    </clipPath>
    <clipPath
       clipPathUnits="userSpaceOnUse"
       id="clipPath394-4">
      <path
         d="m 2260.32,1436.21 c -0.62,0 -1.23,0.03 -1.84,0.09 0,12.58 0,24.77 0,36.65 0.62,0.06 1.24,0.1 1.87,0.1 3.26,0 6.56,-0.87 9.55,-2.69 8.69,-5.28 11.45,-16.61 6.16,-25.3 -3.46,-5.7 -9.53,-8.85 -15.74,-8.85"
         id="path392-7"
         inkscape:connector-curvature="0" />
    </clipPath>
    <clipPath
       id="clipPath5065"
       clipPathUnits="userSpaceOnUse">
      <rect
         x="264.23593"
         y="-1038.0718"
         width="531.83044"
         height="813.30591"
         transform="matrix(0,-1,-1,0,0,0)"
         fill="#f88e01"
         opacity="0.2"
         id="rect5067"
         style="opacity:1;fill:#ffffff;fill-opacity:1;stroke-width:1.15005" />
    </clipPath>
    <linearGradient
       gradientTransform="rotate(102.74932,-1.0772455e-5,1.4380791e-5)"
       gradientUnits="userSpaceOnUse"
       y2="652.91077"
       x2="273.51062"
       y1="652.91077"
       x1="98.057518"
       id="linearGradient5163"
       xlink:href="#linearGradient5159"
       inkscape:collect="always" />
    <linearGradient
       gradientTransform="translate(-2.9179174e-6)"
       gradientUnits="userSpaceOnUse"
       y2="343.63025"
       x2="875.64542"
       y1="343.63025"
       x1="37.355158"
       id="linearGradient5248"
       xlink:href="#linearGradient5246"
       inkscape:collect="always" />
  </defs>
  <title
     id="title24">connected</title>
  <path
     sodipodi:nodetypes="sscsssscs"
     id="path5232"
     d="m 692.87613,146.14994 c 103.4731,36.61735 136.79336,96.65832 105.48467,206.44081 -22.8866,80.2508 80.66466,201.95806 -40.22256,265.41083 C 605.53582,640.51865 418.3286,576.48368 303.2285,576.30443 188.12841,576.12518 170.48621,632.37303 111.70759,564.42486 52.928967,496.47667 119.16244,391.10644 130.69426,298.16711 142.22608,205.22778 79.647637,98.215161 142.82764,41.473773 206.00763,-15.267613 383.80579,13.80194 458.62731,91.420515 525.26145,171.61858 608.50142,116.29118 692.87613,146.14994 Z"
     style="fill:url(#linearGradient5248);fill-opacity:1;stroke:none;stroke-width:0.882503px;stroke-linecap:butt;stroke-linejoin:miter;stroke-opacity:1" />
</svg>
